<svg width="109" height="106" viewBox="0 0 109 106" fill="none" xmlns="http://www.w3.org/2000/svg">
<path d="M25.0927 74.7521C29.3316 71.6604 33.949 69.2865 38.9448 67.6302C43.9406 65.974 49.1257 65.1458 54.5 65.1458C59.8743 65.1458 65.0594 65.974 70.0552 67.6302C75.0511 69.2865 79.6684 71.6604 83.9073 74.7521C86.5566 71.366 88.4868 67.8879 89.6979 64.3177C90.909 60.7476 91.5146 56.975 91.5146 53C91.5146 43.1361 87.8813 34.6708 80.6146 27.6042C73.3479 20.5375 64.6431 17.0042 54.5 17.0042C44.357 17.0042 35.6521 20.5375 28.3854 27.6042C21.1188 34.6708 17.4854 43.1361 17.4854 53C17.4854 56.975 18.091 60.7476 19.3021 64.3177C20.5132 67.8879 22.4434 71.366 25.0927 74.7521ZM54.5091 60.0667C49.2801 60.0667 44.8679 58.3214 41.2724 54.8307C37.6769 51.3401 35.8792 47.0522 35.8792 41.9672C35.8792 36.8821 37.6739 32.5913 41.2633 29.0948C44.8528 25.5983 49.262 23.85 54.4909 23.85C59.7199 23.85 64.1321 25.5953 67.7276 29.086C71.3231 32.5766 73.1208 36.8645 73.1208 41.9495C73.1208 47.0346 71.3261 51.3254 67.7367 54.8219C64.1473 58.3184 59.7381 60.0667 54.5091 60.0667ZM54.5 100.7C47.8389 100.7 41.5169 99.4391 35.534 96.9171C29.5519 94.3945 24.3479 90.9716 19.922 86.6484C15.4969 82.3245 11.9787 77.2549 9.3672 71.4396C6.75574 65.6243 5.45001 59.4594 5.45001 52.9448C5.45001 46.4302 6.75574 40.2837 9.3672 34.5052C11.9787 28.7267 15.4969 23.6755 19.922 19.3516C24.3479 15.0285 29.5519 11.6055 35.534 9.08288C41.5169 6.56096 47.8578 5.3 54.5568 5.3C61.2557 5.3 67.5762 6.56979 73.5182 9.10938C79.4603 11.649 84.6453 15.0719 89.0735 19.3781C93.5016 23.6844 97.0214 28.7238 99.6328 34.4964C102.244 40.269 103.55 46.4368 103.55 53C103.55 59.4778 102.253 65.6258 99.6601 71.444C97.066 77.2615 93.5462 82.3223 89.1007 86.6263C84.6544 90.9296 79.4633 94.3511 73.5273 96.8906C67.5914 99.4302 61.2489 100.7 54.5 100.7Z" fill="black"/>
</svg>
