<svg width="97" height="94" viewBox="0 0 97 94" fill="none" xmlns="http://www.w3.org/2000/svg">
<path d="M22.3303 66.2896C26.1025 63.5479 30.2116 61.4427 34.6574 59.974C39.1032 58.5052 43.7175 57.7708 48.5001 57.7708C53.2827 57.7708 57.897 58.5052 62.3428 59.974C66.7886 61.4427 70.8977 63.5479 74.6699 66.2896C77.0275 63.2868 78.7452 60.2024 79.823 57.0365C80.9008 53.8705 81.4397 50.525 81.4397 47C81.4397 38.2528 78.2063 30.7458 71.7397 24.4792C65.273 18.2125 57.5265 15.0792 48.5001 15.0792C39.4737 15.0792 31.7272 18.2125 25.2605 24.4792C18.7938 30.7458 15.5605 38.2528 15.5605 47C15.5605 50.525 16.0994 53.8705 17.1772 57.0365C18.255 60.2024 19.9727 63.2868 22.3303 66.2896ZM48.5082 53.2667C43.8549 53.2667 39.9284 51.7189 36.7287 48.6235C33.5291 45.528 31.9293 41.7256 31.9293 37.2162C31.9293 32.7068 33.5264 28.9017 36.7207 25.801C39.9149 22.7003 43.8387 21.15 48.492 21.15C53.1453 21.15 57.0718 22.6977 60.2715 25.7932C63.4711 28.8887 65.0709 32.6911 65.0709 37.2005C65.0709 41.7099 63.4738 45.5149 60.2795 48.6156C57.0853 51.7163 53.1615 53.2667 48.5082 53.2667ZM48.5001 89.3C42.5723 89.3 36.9463 88.1818 31.6221 85.9454C26.2985 83.7083 21.6675 80.6729 17.7289 76.8391C13.7909 73.0047 10.66 68.509 8.33604 63.3521C6.01208 58.1951 4.8501 52.7281 4.8501 46.951C4.8501 41.174 6.01208 35.7233 8.33604 30.599C10.66 25.4747 13.7909 20.9953 17.7289 17.1609C21.6675 13.3271 26.2985 10.2917 31.6221 8.05463C36.9463 5.81821 42.5892 4.7 48.5506 4.7C54.5121 4.7 60.1367 5.82604 65.4246 8.07813C70.7124 10.3302 75.3267 13.3656 79.2673 17.1844C83.2079 21.0031 86.3402 25.472 88.6642 30.5911C90.9881 35.7102 92.1501 41.1798 92.1501 47C92.1501 52.7444 90.9962 58.1964 88.6884 63.356C86.3799 68.5149 83.2477 73.0028 79.2915 76.8195C75.3347 80.6357 70.7151 83.6698 65.4327 85.9219C60.1502 88.174 54.506 89.3 48.5001 89.3Z" fill="black"/>
</svg>
