<svg width="97" height="94" viewBox="0 0 97 94" fill="none" xmlns="http://www.w3.org/2000/svg">
<path d="M22.3302 66.2896C26.1024 63.5479 30.2114 61.4427 34.6573 59.974C39.1031 58.5052 43.7173 57.7708 48.5 57.7708C53.2826 57.7708 57.8969 58.5052 62.3427 59.974C66.7885 61.4427 70.8975 63.5479 74.6698 66.2896C77.0274 63.2868 78.7451 60.2024 79.8229 57.0365C80.9007 53.8705 81.4396 50.525 81.4396 47C81.4396 38.2528 78.2062 30.7458 71.7396 24.4792C65.2729 18.2125 57.5264 15.0792 48.5 15.0792C39.4736 15.0792 31.7271 18.2125 25.2604 24.4792C18.7937 30.7458 15.5604 38.2528 15.5604 47C15.5604 50.525 16.0993 53.8705 17.1771 57.0365C18.2548 60.2024 19.9725 63.2868 22.3302 66.2896ZM48.5081 53.2667C43.8548 53.2667 39.9283 51.7189 36.7286 48.6235C33.529 45.528 31.9291 41.7256 31.9291 37.2162C31.9291 32.7068 33.5263 28.9017 36.7205 25.801C39.9148 22.7003 43.8386 21.15 48.4919 21.15C53.1452 21.15 57.0717 22.6977 60.2713 25.7932C63.471 28.8887 65.0708 32.6911 65.0708 37.2005C65.0708 41.7099 63.4737 45.5149 60.2794 48.6156C57.0852 51.7163 53.1614 53.2667 48.5081 53.2667ZM48.5 89.3C42.5722 89.3 36.9462 88.1818 31.622 85.9454C26.2984 83.7083 21.6674 80.6729 17.7287 76.8391C13.7908 73.0047 10.6599 68.509 8.33591 63.3521C6.01195 58.1951 4.84998 52.7281 4.84998 46.951C4.84998 41.174 6.01195 35.7233 8.33591 30.599C10.6599 25.4747 13.7908 20.9953 17.7287 17.1609C21.6674 13.3271 26.2984 10.2917 31.622 8.05462C36.9462 5.81821 42.589 4.7 48.5505 4.7C54.512 4.7 60.1366 5.82604 65.4245 8.07812C70.7123 10.3302 75.3265 13.3656 79.2672 17.1844C83.2078 21.0031 86.3401 25.472 88.664 30.5911C90.988 35.7102 92.15 41.1798 92.15 47C92.15 52.7444 90.9961 58.1964 88.6883 63.356C86.3798 68.5149 83.2475 73.0027 79.2914 76.8195C75.3346 80.6357 70.715 83.6698 65.4325 85.9219C60.1501 88.174 54.5059 89.3 48.5 89.3Z" fill="black"/>
</svg>
